<?xml version="1.0" encoding="UTF-8"?>
<svg version="1.1" xmlns="http://www.w3.org/2000/svg" width="1573" height="401">
<path d="M0 0 C6.05815032 3.93155307 11.34594075 4.78612745 18.5 5.1875 C32.05799516 6.02928565 32.05799516 6.02928565 37.6875 12.0625 C40.0492379 14.74059078 42.34490188 17.47035119 44.60620117 20.23364258 C52.69606348 30.07289345 62.87352116 36.40779916 75.6875 38.0625 C79.08715815 38.19286337 82.48244726 38.17166361 85.88412476 38.14910889 C86.90857842 38.14643548 87.93303209 38.14376208 88.9885298 38.14100766 C92.41995831 38.1309502 95.85131457 38.11374281 99.28271484 38.09667969 C101.74349299 38.08821186 104.20427296 38.0802595 106.66505432 38.07278442 C111.27778375 38.05823089 115.89050037 38.04213927 120.50321521 38.02364901 C129.56801566 37.98733704 138.63281128 37.96348923 147.69766235 37.94415283 C149.12603646 37.94104245 150.55441055 37.93792478 151.98278463 37.93479991 C154.14728 37.93007426 156.31177539 37.92535609 158.47627085 37.92066751 C166.63066846 37.90295498 174.78506226 37.88386901 182.93945312 37.86328125 C183.68460594 37.8614042 184.42975876 37.85952714 185.19749196 37.85759321 C197.27446388 37.82669874 209.35134293 37.78104994 221.42824809 37.73087153 C233.83599711 37.67975668 246.24369699 37.64779645 258.65154231 37.63272786 C266.30027314 37.62276945 273.94863953 37.59743972 281.59724487 37.55227116 C287.46006056 37.51917042 293.32272211 37.51234667 299.18563652 37.51525497 C301.5882438 37.5122827 303.99085818 37.50072504 306.3933773 37.47993088 C309.67500673 37.45278949 312.95521848 37.45656628 316.23690796 37.46795654 C317.18614053 37.45271022 318.1353731 37.43746389 319.1133703 37.42175555 C325.51650377 37.48920266 329.71124501 38.98610425 334.6875 43.0625 C338.02205024 46.81386902 338.01255302 50.26031804 337.98828125 55.07421875 C337.6875 57.0625 337.6875 57.0625 335.6875 59.0625 C333.78348207 59.30859566 333.78348207 59.30859566 331.40882111 59.30300903 C330.50532315 59.30575773 329.60182519 59.30850643 328.67094851 59.31133842 C327.67194883 59.3041485 326.67294915 59.29695858 325.64367676 59.28955078 C324.58729995 59.2898485 323.53092315 59.29014622 322.44253492 59.29045296 C318.87892828 59.28905658 315.31552421 59.27333856 311.75195312 59.2578125 C309.2063407 59.25397671 306.66072677 59.25104791 304.1151123 59.2489624 C298.620296 59.24262475 293.12554381 59.23028633 287.63075256 59.21282959 C279.67527014 59.18774255 271.71980762 59.17557237 263.76429218 59.16696286 C250.84349678 59.15281509 237.92272631 59.13120505 225.00195312 59.10351562 C224.22814739 59.10186 223.45434166 59.10020438 222.65708727 59.09849858 C216.38279282 59.08501765 210.10849919 59.07117587 203.83420563 59.05729294 C198.36147597 59.04519389 192.88874605 59.03323057 187.41601562 59.02148438 C186.26035657 59.01899999 186.26035657 59.01899999 185.08135086 59.01646543 C172.21944543 58.98906024 159.35753957 58.9695579 146.49561262 58.95566368 C138.5647528 58.94671467 130.63396794 58.93066215 122.70314306 58.90537405 C116.61755027 58.88647591 110.53198733 58.87782321 104.44636536 58.8728714 C101.9543175 58.86913224 99.46227203 58.86194002 96.97024536 58.85100555 C93.56250132 58.83652685 90.1549621 58.83450002 86.74719238 58.83544922 C85.76603848 58.8282593 84.78488458 58.82106937 83.77399874 58.81366158 C75.17871991 58.83922071 66.42563568 59.22278241 59.6875 65.0625 C57.88732865 67.20208313 56.19737275 69.40291902 54.515625 71.63671875 C44.33527497 85.14526014 30.82570094 95.42170803 13.6875 98.0625 C11.77253832 98.15343393 9.8546128 98.19257173 7.9375 98.1875 C6.49117187 98.19136719 6.49117187 98.19136719 5.015625 98.1953125 C2.44807873 98.09285173 0.00441357 97.88141349 -2.5390625 97.5703125 C-7.67546691 96.96926686 -12.76958856 96.84228623 -17.9375 96.8125 C-18.83984375 96.791875 -19.7421875 96.77125 -20.671875 96.75 C-28.87253707 96.70218273 -33.95096751 98.80912477 -40.625 103.6875 C-46.14888286 107.69717913 -49.45519703 108.85119938 -56.3125 108.0625 C-62.71603982 105.96596739 -66.89430096 102.0852488 -71.0625 96.875 C-73.75452851 90.81793585 -74.01269871 85.07315126 -71.8125 78.8125 C-68.98428158 72.63123913 -65.13513772 69.26473458 -58.9375 66.625 C-50.26406044 65.27912145 -44.4250831 67.63972908 -36.71875 71.6875 C-20.03887735 78.4206596 9.54546172 76.04168787 26.08984375 69.7734375 C33.81184577 66.27279659 39.25421378 61.91001136 42.6875 54.0625 C43.1521913 49.88027826 43.01336087 47.66594606 41 43.9375 C35.44398702 37.03002441 29.49542159 32.13495214 20.6875 30.0625 C13.2429601 29.38125597 7.49152126 30.79881856 0.625 33.5625 C-6.45216532 36.39774488 -13.25036184 38.88422488 -20.765625 36.1796875 C-26.91477025 31.92875665 -31.63630884 27.68155072 -33.3125 20.0625 C-33.92595225 13.72349339 -33.05715339 9.28832548 -29.3125 4.0625 C-20.04425019 -5.78622474 -11.56356525 -7.56713118 0 0 Z " fill="#77B727" transform="translate(73.3125,134.9375)"/>
<path d="M0 0 C2.07347471 1.4012701 4.04623222 2.80710696 5.94287109 4.44189453 C12.38563379 9.60093073 18.7661968 9.69856962 26.70748901 9.63980103 C29.65703451 9.61965981 32.60429388 9.66747783 35.55345154 9.71247864 C37.02554692 9.73480845 38.49769013 9.75418828 39.96986389 9.77055359 C80.5893243 10.25955492 113.20757829 23.60123939 142.125 51.875 C143.00027344 52.72449219 143.87554687 53.57398438 144.77734375 54.44921875 C164.65104228 74.95083825 174.95050185 103.86748663 174.5625 132.18359375 C174.18277019 140.0001644 172.17903482 147.55771621 170.17163086 155.0949707 C165.17641057 174.74596499 172.57812769 190.78238355 181.93481445 207.75537109 C185.97627521 215.16673729 189.15921618 222.13548673 187.92578125 230.76953125 C186.36919588 234.86221181 182.75933199 236.7277433 179.125 238.875 C171.84179197 243.21691248 169.63336949 247.91797137 167.26953125 255.76953125 C166.92083984 256.92332275 166.57214844 258.07711426 166.21289062 259.26586914 C165.85388672 260.45688232 165.49488281 261.64789551 165.125 262.875 C164.77630859 263.99962646 164.42761719 265.12425293 164.06835938 266.28295898 C160.14000105 278.97605534 156.4717139 290.96264868 156.24609375 304.30078125 C156.02284574 310.89019841 154.93490685 317.90683634 151 323.375 C144.67936205 328.87120692 137.38428036 330.99903085 129.12890625 331.0078125 C127.34540771 331.01047119 127.34540771 331.01047119 125.52587891 331.01318359 C123.62588135 331.00665771 123.62588135 331.00665771 121.6875 331 C120.39247559 330.9995166 119.09745117 330.9990332 117.76318359 330.99853516 C109.0671474 330.96739736 100.40805239 330.72733131 91.73657227 330.05517578 C86.77684421 329.7249045 82.85652079 330.06204291 78.125 331.875 C71.6424628 337.93476304 67.36109529 346.14961109 63.125 353.875 C62.63 354.75929688 62.135 355.64359375 61.625 356.5546875 C58.33803423 363.69927282 59.09105879 370.79336718 59.82763672 378.43994141 C60.29758807 383.81606565 60.27368346 387.22011261 57.125 391.875 C52.03730024 396.74149542 47.75499936 399.15742553 40.6875 399.1875 C34.38977737 399.04379358 30.93988474 397.68988474 26.4375 393.1875 C22.23926048 387.71624592 20.37306506 381.76773691 21.125 374.875 C22.74723915 368.71049124 25.3807772 366.56510229 30.72265625 363.2578125 C32.21793317 362.39711651 33.72423838 361.55496477 35.24609375 360.7421875 C44.00636826 355.85829177 47.89350716 347.53375056 52.125 338.8125 C57.70762465 327.36106464 63.55211969 319.43951397 75.89453125 314.84375 C83.27642264 312.6136961 89.81803692 312.46735094 97.40625 313.375 C103.91341111 314.03477299 110.42454859 314.09684625 116.95922852 314.11523438 C119.08322116 314.12509621 121.2063049 314.15629314 123.33007812 314.1875 C124.68749434 314.19401792 126.04491735 314.19927312 127.40234375 314.203125 C128.62171631 314.2124707 129.84108887 314.22181641 131.09741211 314.23144531 C134.04041186 314.0914128 134.04041186 314.0914128 135.96289062 312.79174805 C137.7041253 309.91980825 137.95568478 307.19824315 138.44140625 303.87890625 C140.22942312 292.61020226 142.74813505 281.51422931 145.25854492 270.38793945 C146.06752396 266.79015689 146.86098798 263.18915652 147.65429688 259.58789062 C148.17353281 257.27582893 148.69368237 254.96397219 149.21484375 252.65234375 C149.4472728 251.58765366 149.67970184 250.52296356 149.91917419 249.42601013 C152.44209811 238.40771412 155.77680113 232.24173879 165.4375 226.125 C166.66474796 225.37186447 167.89326085 224.62076763 169.125 223.875 C166.854426 216.80922775 163.90706182 210.17112245 160.6875 203.5 C151.09673796 183.489693 148.97354422 170.22958946 154.71557617 148.70825195 C160.77329123 125.54777278 155.42176762 103.29159845 143.84301758 82.89990234 C129.08926864 57.9246215 106.44215575 39.44305032 78.4375 31.4375 C70.72978061 29.61416853 62.99769072 28.62742014 55.125 27.875 C54.00867188 27.76285156 52.89234375 27.65070312 51.7421875 27.53515625 C24.45232998 25.10583951 24.45232998 25.10583951 -0.0703125 35.60546875 C-4.24518759 38.54233976 -8.97719277 38.45566787 -13.875 37.875 C-20.30815281 34.84763397 -24.30001118 29.16193319 -27.3125 22.875 C-28.4628542 16.73977759 -27.39565223 11.6790909 -24.10546875 6.4765625 C-18.33111644 -1.03926114 -8.64525347 -5.3346703 0 0 Z " fill="#DCDCDC" transform="translate(267.875,2.125)"/>
<path d="M0 0 C0.495 0.495 0.495 0.495 1 1 C1.66 -1.31 2.32 -3.62 3 -6 C11.58 -6 20.16 -6 29 -6 C29.09055311 8.5261118 29.16386167 23.05203455 29.20724869 37.57836533 C29.22780905 44.32431955 29.25580329 51.07008498 29.30175781 57.81591797 C29.3453823 64.33226767 29.36917238 70.84842179 29.37950897 77.36490631 C29.38687053 79.84466885 29.4012456 82.3244213 29.42292023 84.80410004 C29.4521741 88.2911805 29.45594673 91.77746401 29.45410156 95.26464844 C29.46848267 96.27813858 29.48286377 97.29162872 29.49768066 98.33583069 C29.42264278 111.53610778 24.26186388 123.58688317 15.3125 133.25 C4.35996905 143.49858757 -9.34826512 146.52113964 -24.02905273 146.3515625 C-38.7863481 145.8373337 -52.28864384 141.42971916 -63.09765625 131.12890625 C-69.47862831 123.98798269 -73.1219891 114.55680471 -73 105 C-68.77176232 104.76735969 -64.54516663 104.62547874 -60.3125 104.5 C-59.11431641 104.43296875 -57.91613281 104.3659375 -56.68164062 104.296875 C-47.95767605 104.1024691 -47.95767605 104.1024691 -45.18847656 106.69775391 C-43.95273738 108.7496096 -42.97860675 110.81693344 -42 113 C-36.39094746 118.69703768 -30.11051443 120.9794673 -22.1875 121.375 C-15.26731446 121.21676405 -9.47821726 118.950937 -4.0625 114.6875 C1.76738692 107.09098068 1.65627594 99.20943421 2 90 C0.89140625 90.56589844 -0.2171875 91.13179688 -1.359375 91.71484375 C-2.82280903 92.45594175 -4.28635667 93.19681544 -5.75 93.9375 C-6.47960938 94.31068359 -7.20921875 94.68386719 -7.9609375 95.06835938 C-8.66992188 95.42607422 -9.37890625 95.78378906 -10.109375 96.15234375 C-10.75874023 96.48226318 -11.40810547 96.81218262 -12.07714844 97.15209961 C-20.9956963 101.08482139 -35.09369939 100.50671719 -44.125 97.375 C-45.77540173 96.63775158 -47.40254252 95.84586683 -49 95 C-49.86882812 94.55269531 -50.73765625 94.10539062 -51.6328125 93.64453125 C-63.81757565 86.86107356 -70.98946443 76.74998573 -75.4375 63.5625 C-79.52082682 47.60040424 -78.32746219 29.98156512 -70.125 15.5625 C-69.1112081 14.02294505 -68.0711803 12.50019206 -67 11 C-66.56042969 10.36578125 -66.12085938 9.7315625 -65.66796875 9.078125 C-58.86129518 0.21179517 -47.73267526 -4.98278037 -37.125 -7.75 C-23.48031968 -8.84157443 -11.93716097 -6.95708752 0 0 Z M-40.875 22.3125 C-41.926875 23.6428125 -41.926875 23.6428125 -43 25 C-43.43957031 25.53753906 -43.87914062 26.07507813 -44.33203125 26.62890625 C-50.27648881 34.28646397 -50.89119001 42.54898497 -50 52 C-47.94620167 60.73696911 -44.50797414 66.85447148 -36.9375 71.8125 C-30.96015514 75.46992488 -24.87874934 75.65334119 -18 75 C-10.3951341 73.00567498 -4.85996377 68.50148143 -0.6796875 61.921875 C3.3405134 53.65656686 3.5096771 42.957977 1.26953125 34.1171875 C-1.74733064 26.85209152 -6.47617257 21.55809412 -13.484375 17.984375 C-23.09301071 14.22447407 -32.84765779 15.85572475 -40.875 22.3125 Z " fill="#E8E8E8" transform="translate(1229,156)"/>
<path d="M0 0 C8.91 0 17.82 0 27 0 C27 45.54 27 91.08 27 138 C18.09 138 9.18 138 0 138 C-0.33 135.36 -0.66 132.72 -1 130 C-2.60875 131.11375 -2.60875 131.11375 -4.25 132.25 C-16.33362402 139.6262644 -29.79687803 140.98704126 -43.5703125 138.3046875 C-57.54048839 134.05289484 -67.13424104 124.75017364 -74.45703125 112.41796875 C-78.42491843 103.62834526 -79.53096434 95.2054625 -79.4375 85.625 C-79.42505249 83.97636963 -79.42505249 83.97636963 -79.41235352 82.29443359 C-79.10858021 67.70682867 -74.75932546 56.04321754 -64.6875 45.1875 C-54.78926386 35.95357501 -42.24662725 31.58794412 -28.83203125 31.7890625 C-18.11281501 32.5874593 -10.82900513 36.08549744 -1 41 C-0.67 27.47 -0.34 13.94 0 0 Z M-45.2421875 63.90234375 C-51.02974658 70.80883091 -53.337193 78.64802524 -53.21875 87.53125 C-52.45365961 96.16584152 -49.09837139 103.28640023 -42.75 109.1875 C-36.67255116 114.0932373 -30.59238055 115.65846013 -22.80859375 115.41015625 C-15.73228331 114.37675904 -9.57270395 110.76060976 -5.25 105.0625 C0.13956703 96.1697144 1.76432477 86.3913724 -0.66015625 76.234375 C-3.29581061 68.79521203 -7.86353158 62.47919129 -14.8125 58.5625 C-25.63226693 53.89269693 -36.72214921 55.77898741 -45.2421875 63.90234375 Z " fill="#E9E9E9" transform="translate(730,116)"/>
<path d="M0 0 C1.60094511 -0.00596161 1.60094511 -0.00596161 3.23423254 -0.01204365 C6.79249256 -0.02162943 10.3503513 -0.00987095 13.90859985 0.00190735 C16.4666051 -0.00052175 19.0246094 -0.00424221 21.58261108 -0.00915527 C27.79682747 -0.01757448 34.01089613 -0.01206768 40.22510211 0.00010767 C47.46249669 0.01375785 54.6998638 0.01208731 61.93726797 0.00997434 C74.84668114 0.00678865 87.75603901 0.0184307 100.66543579 0.03804016 C113.19409873 0.05706627 125.72269694 0.06412102 138.25137329 0.05854797 C151.90175594 0.05249392 165.55211017 0.05265857 179.20249045 0.06403381 C180.65692178 0.06524109 182.11135312 0.06644708 183.56578445 0.06765175 C184.63917192 0.06855706 184.63917192 0.06855706 185.73424398 0.06948065 C190.78091542 0.07336257 195.82757629 0.07296522 200.8742485 0.0710659 C207.65894677 0.06872581 214.44354959 0.07725159 221.22823334 0.0931263 C223.72321604 0.09738185 226.21820719 0.09821122 228.71319199 0.0954361 C232.10771547 0.09223216 235.50198683 0.10125073 238.89648438 0.11352539 C239.89325333 0.10974607 240.89002228 0.10596674 241.91699636 0.10207289 C242.82310207 0.10790509 243.72920777 0.11373728 244.66277122 0.11974621 C245.4465717 0.12061299 246.23037217 0.12147976 247.03792417 0.12237281 C249.06729126 0.3742218 249.06729126 0.3742218 252.06729126 2.3742218 C252.95915786 7.50245475 251.57700389 10.88485856 249.53604126 15.6320343 C249.07649048 16.70856262 248.6169397 17.78509094 248.14346313 18.89424133 C247.78832642 19.71263489 247.4331897 20.53102844 247.06729126 21.3742218 C222.5914813 21.42010873 198.11804101 21.31089314 173.64279813 21.14928353 C165.79631167 21.09756374 157.94980893 21.0494925 150.10328674 21.00352478 C148.95003357 20.99676361 147.79678041 20.99000245 146.60858017 20.9830364 C141.88141593 20.95538486 137.15425106 20.92784323 132.427086 20.90033221 C119.11464878 20.82268727 105.80225237 20.74151608 92.48989868 20.65058899 C81.81420808 20.57769682 71.13850065 20.51211618 60.46271318 20.45507777 C54.84236427 20.42477577 49.2220919 20.39085006 43.60182381 20.34795761 C38.33771033 20.30785504 33.07362876 20.27747301 27.80941391 20.25440788 C25.88739626 20.24429092 23.9653931 20.23067889 22.04342842 20.21318626 C5.80757345 20.06869643 -8.4328827 19.98661303 -21.00302124 31.45625305 C-22.89570751 33.33744528 -24.63923436 35.28161591 -26.37020874 37.3117218 C-32.95895156 45.02354579 -40.08683317 51.79440436 -50.18270874 54.1242218 C-53.93270874 54.3742218 -53.93270874 54.3742218 -56.65145874 54.1789093 C-65.38792589 53.66102594 -70.02235805 56.21003499 -76.93270874 61.3742218 C-81.3517693 63.58375208 -87.12260247 62.79070661 -91.93270874 62.3742218 C-97.64583808 59.72169747 -101.62990283 55.22798714 -104.24520874 49.4992218 C-105.78022899 42.52185703 -105.32309216 37.68734954 -101.93270874 31.3742218 C-98.24020144 25.96869565 -94.59014597 22.99429049 -88.18270874 21.4992218 C-80.13896826 20.79125213 -73.80731452 24.91671174 -67.21395874 29.0070343 C-63.28532624 31.36152296 -60.26059178 32.3742218 -55.68270874 32.3742218 C-44.26164674 29.32860527 -36.70631231 20.79611849 -29.24520874 12.1242218 C-20.82169889 2.42851138 -12.68375868 -0.095114 0 0 Z " fill="#E5E5E5" transform="translate(158.93270874023438,229.6257781982422)"/>
<path d="M0 0 C1.20970459 0.00523682 2.41940918 0.01047363 3.66577148 0.01586914 C4.97094727 0.0190918 6.27612305 0.02231445 7.62084961 0.02563477 C9.00952213 0.03399138 10.39819401 0.04245634 11.78686523 0.05102539 C13.17944179 0.05603873 14.57202005 0.06060193 15.96459961 0.06469727 C19.38456394 0.07653105 22.80444367 0.09301659 26.22436523 0.11352539 C38.00393634 32.31282334 49.62847551 64.56211726 61.06274414 96.88549805 C61.28955557 97.52658319 61.516367 98.16766834 61.7500515 98.82818031 C62.81019243 101.82493157 63.86964418 104.82192275 64.92782593 107.81936646 C65.3041214 108.88420258 65.68041687 109.9490387 66.06811523 111.04614258 C66.6037207 112.56226135 66.6037207 112.56226135 67.15014648 114.10900879 C68.56708162 118.07207975 70.03182403 122.01703604 71.50756836 125.95855713 C72.22436523 128.11352539 72.22436523 128.11352539 72.22436523 130.11352539 C62.65436523 130.11352539 53.08436523 130.11352539 43.22436523 130.11352539 C40.25436523 122.19352539 37.28436523 114.27352539 34.22436523 106.11352539 C19.04436523 106.11352539 3.86436523 106.11352539 -11.77563477 106.11352539 C-14.36658622 113.63672389 -14.36658622 113.63672389 -16.95117188 121.16210938 C-17.27351807 122.0935376 -17.59586426 123.02496582 -17.92797852 123.98461914 C-18.25789795 124.94295654 -18.58781738 125.90129395 -18.92773438 126.88867188 C-19.77563477 129.11352539 -19.77563477 129.11352539 -20.77563477 130.11352539 C-22.84825553 130.20119651 -24.92383771 130.22048412 -26.99829102 130.21118164 C-28.25834961 130.20795898 -29.5184082 130.20473633 -30.81665039 130.20141602 C-32.15714585 130.19305942 -33.49764064 130.18459446 -34.83813477 130.17602539 C-36.18253418 130.17101199 -37.52693536 130.16644881 -38.87133789 130.16235352 C-42.17281417 130.15052027 -45.4742028 130.1340351 -48.77563477 130.11352539 C-48.00237421 125.32098966 -46.40903515 120.88548567 -44.81079102 116.32055664 C-44.50601334 115.4425087 -44.20123566 114.56446075 -43.88722229 113.6598053 C-42.87461402 110.74722253 -41.85664926 107.83654762 -40.83813477 104.92602539 C-40.31216705 103.41797333 -40.31216705 103.41797333 -39.77557373 101.87945557 C-32.27116113 80.36483147 -24.55281655 58.92814552 -16.80194092 37.50134277 C-14.66808019 31.59809628 -12.54974372 25.68964963 -10.45141602 19.77368164 C-10.20917297 19.09132446 -9.96692993 18.40896729 -9.71734619 17.70593262 C-8.6420796 14.67561029 -7.56998829 11.64422147 -6.50268555 8.61108398 C-5.97070557 7.10989014 -5.97070557 7.10989014 -5.42797852 5.57836914 C-5.12883545 4.72879639 -4.82969238 3.87922363 -4.52148438 3.00390625 C-3.36980117 0.08492654 -3.29038175 0.1345789 0 0 Z M11.22436523 39.11352539 C9.40654127 44.1112041 7.59186898 49.11001194 5.7800293 54.10986328 C5.16401956 55.80841479 4.54716978 57.5066619 3.92944336 59.20458984 C3.03852553 61.65389539 2.15069631 64.10430215 1.26342773 66.55493164 C0.85237289 67.68192223 0.85237289 67.68192223 0.43301392 68.8316803 C0.1728952 69.55189865 -0.08722351 70.272117 -0.35522461 71.01416016 C-0.58172699 71.63815201 -0.80822937 72.26214386 -1.04159546 72.90504456 C-2.05150736 75.94353453 -2.89599748 79.03479487 -3.77563477 82.11352539 C6.12436523 82.11352539 16.02436523 82.11352539 26.22436523 82.11352539 C25.36979962 76.91658269 25.36979962 76.91658269 23.91748047 72.03588867 C23.65728622 71.29557404 23.39709198 70.5552594 23.12901306 69.79251099 C22.84981522 69.01414886 22.57061737 68.23578674 22.28295898 67.43383789 C21.99582535 66.62107391 21.70869171 65.80830994 21.41285706 64.97091675 C20.50050298 62.39177956 19.58129661 59.81514699 18.66186523 57.23852539 C18.03966542 55.4834783 17.41791575 53.72827156 16.79663086 51.97290039 C15.27774709 47.68457633 13.75271579 43.39848417 12.22436523 39.11352539 C11.89436523 39.11352539 11.56436523 39.11352539 11.22436523 39.11352539 Z " fill="#77B728" transform="translate(526.775634765625,123.886474609375)"/>
<path d="M0 0 C0.495 0.4125 0.99 0.825 1.5 1.25 C1.83 -1.39 2.16 -4.03 2.5 -6.75 C11.08 -6.75 19.66 -6.75 28.5 -6.75 C29.63337641 -4.48324718 29.63022972 -3.24296621 29.64044189 -0.7265625 C29.64615204 0.11471191 29.65186218 0.95598633 29.65774536 1.82275391 C29.65942215 3.20986572 29.65942215 3.20986572 29.66113281 4.625 C29.66858017 6.08365479 29.66858017 6.08365479 29.67617798 7.57177734 C29.69081831 10.79785867 29.69760378 14.02389087 29.703125 17.25 C29.70887372 19.48437502 29.71463149 21.71875002 29.72039795 23.953125 C29.73091246 28.64062735 29.73675257 33.32811251 29.74023438 38.015625 C29.74572822 44.0352549 29.76977344 50.05465963 29.79820633 56.07421875 C29.81678498 60.68945999 29.8220357 65.30464639 29.82357025 69.91992188 C29.82660677 72.13998652 29.83466862 74.36004998 29.84775543 76.58007812 C29.86472065 79.67856247 29.86295937 82.77648868 29.85644531 85.875 C29.8656601 86.79974121 29.87487488 87.72448242 29.8843689 88.67724609 C29.87879974 89.51852051 29.87323059 90.35979492 29.86749268 91.2265625 C29.86969252 92.32605225 29.86969252 92.32605225 29.8719368 93.44775391 C29.5 95.25 29.5 95.25 26.5 97.25 C24.17163086 97.49291992 24.17163086 97.49291992 21.46484375 97.48046875 C20.49095703 97.47853516 19.51707031 97.47660156 18.51367188 97.47460938 C17.49853516 97.46236328 16.48339844 97.45011719 15.4375 97.4375 C14.41849609 97.43685547 13.39949219 97.43621094 12.34960938 97.43554688 C4.78080986 97.39040493 4.78080986 97.39040493 2.5 96.25 C2.5 93.61 2.5 90.97 2.5 88.25 C1.90574219 88.63671875 1.31148437 89.0234375 0.69921875 89.421875 C-12.00942553 97.40677747 -24.14418558 100.83115002 -39.09765625 98.1640625 C-51.23172316 94.90416393 -62.10759228 88.06031734 -68.8125 77.3125 C-69.73469698 75.63926172 -70.63180097 73.9518825 -71.5 72.25 C-71.89058594 71.49589844 -72.28117187 70.74179688 -72.68359375 69.96484375 C-79.54809661 55.70779935 -79.42781978 38.11294029 -74.5 23.25 C-69.40611581 10.05220914 -60.64527901 1.02575034 -48 -5 C-31.97794759 -11.62981479 -14.26613972 -9.9862978 0 0 Z M-42.7421875 23.21484375 C-50.14740123 31.78843564 -51.20009003 40.23006442 -50.5 51.25 C-49.17158427 58.65760637 -45.44708163 65.18511773 -39.47265625 69.82421875 C-32.62544699 74.27426723 -26.60444384 74.86823081 -18.5 74.25 C-13.07416854 73.07208445 -8.04384094 70.61532428 -4.5 66.25 C0.98289573 56.99199574 4.00308899 48.47877531 2.0390625 37.7265625 C-0.0053902 29.90953748 -3.6418221 23.89228201 -10.4375 19.375 C-21.62910552 13.03166634 -33.42169149 14.32829796 -42.7421875 23.21484375 Z " fill="#E9E9E9" transform="translate(1495.5,156.75)"/>
<path d="M0 0 C1.051875 0.7425 2.10375 1.485 3.1875 2.25 C11.49625566 10.37411664 15.74265426 19.71327131 18 31 C18 38.59 18 46.18 18 54 C-6.42 54 -30.84 54 -56 54 C-51.69088117 63.69551737 -49.55865949 68.19147161 -40 72 C-32.85761197 74.10395927 -26.56668602 73.29040396 -20 70 C-16.67412409 67.80794542 -15.2464088 66.59874333 -13.71875 62.88671875 C-11 60 -11 60 -8.14746094 59.51342773 C-4.49864986 59.40816362 -0.89734562 59.47880629 2.75 59.625 C4.01972656 59.65207031 5.28945313 59.67914063 6.59765625 59.70703125 C9.73347906 59.7777641 12.86588663 59.87643508 16 60 C14.87259533 72.00429744 9.12376376 80.24009783 0 88 C-12.27675242 97.87697571 -27.95314951 98.38382323 -43 97 C-51.21873449 95.46813116 -58.1417144 91.67498245 -65 87 C-66.546875 85.948125 -66.546875 85.948125 -68.125 84.875 C-77.48760774 76.54972664 -82.38881512 64.16670454 -84 52 C-84.86996863 35.37021498 -82.59735245 19.71196158 -71.82421875 6.2890625 C-53.23286166 -13.04081137 -21.76142863 -15.91382784 0 0 Z M-52.58984375 24.02734375 C-54.17572028 26.24581369 -55.26034267 28.37010728 -56 31 C-51.74771414 32.19403867 -47.6051106 32.14364209 -43.21875 32.1328125 C-42.36825073 32.13376923 -41.51775146 32.13472595 -40.64147949 32.13571167 C-38.84610927 32.13639114 -37.05073657 32.1345531 -35.25537109 32.13037109 C-32.51003492 32.12501956 -29.76486235 32.13032396 -27.01953125 32.13671875 C-25.27343714 32.13605793 -23.52734313 32.13477668 -21.78125 32.1328125 C-20.55142395 32.13584885 -20.55142395 32.13584885 -19.29675293 32.13894653 C-15.69591924 32.12415959 -12.46468629 31.9728813 -9 31 C-11.04086927 23.68688513 -14.45552041 19.79579816 -21 16 C-33.127158 10.22516286 -44.56143552 14.24329271 -52.58984375 24.02734375 Z " fill="#EAEAEA" transform="translate(854,158)"/>
<path d="M0 0 C3.18751027 0.86615481 6.31709308 1.83660687 9.45458984 2.86914062 C10.57704102 3.22717773 11.69949219 3.58521484 12.85595703 3.95410156 C42.53404264 13.62714683 42.53404264 13.62714683 52.39208984 23.68164062 C53.16166016 24.46539062 53.93123047 25.24914062 54.72412109 26.05664062 C56.5902953 28.04722645 58.34898441 30.07402666 60.07958984 32.18164062 C64.81729252 37.80440864 70.49570747 40.87853898 77.89507151 41.55123782 C80.13582336 41.62432391 82.36825979 41.63398302 84.61016846 41.62069702 C85.46341162 41.62366716 86.31665479 41.6266373 87.19575381 41.62969744 C90.04154184 41.63730788 92.88712168 41.63085571 95.73291016 41.62451172 C97.77831156 41.62726287 99.82371189 41.63094353 101.86911011 41.63548279 C106.2665069 41.64358308 110.66385288 41.64576626 115.06125641 41.64353561 C122.01050469 41.64070129 128.95965143 41.65505729 135.90887451 41.67251587 C155.66693615 41.71953679 175.42499035 41.74349758 195.18310547 41.75 C206.10067926 41.75374463 217.0181377 41.77172169 227.93566203 41.80509436 C234.84852544 41.82535923 241.76109243 41.82765442 248.67397356 41.81681418 C252.9658289 41.81421542 257.25750991 41.82816927 261.54932022 41.84689522 C263.54440553 41.85223737 265.53952255 41.85068614 267.53459549 41.84185982 C270.25079979 41.8308088 272.965815 41.84408743 275.6819458 41.86361694 C276.47774968 41.85449229 277.27355357 41.84536763 278.09347272 41.83596647 C283.39883304 41.91058748 283.39883304 41.91058748 285.85053635 44.18979836 C287.35372571 47.33506561 287.7718803 49.88306381 287.89208984 53.36914062 C286.37692357 57.38433126 285.48656455 58.97282416 281.89208984 61.36914062 C279.13087414 61.56504118 276.47053071 61.6429975 273.7088623 61.62983704 C272.44259089 61.63557536 272.44259089 61.63557536 271.15073824 61.6414296 C268.31120424 61.65177951 265.47187172 61.64776359 262.63232422 61.64379883 C260.60049247 61.64814443 258.56866237 61.65332706 256.53683472 61.6592865 C251.00750613 61.67270992 245.47824575 61.67325103 239.94890404 61.6707232 C235.33204487 61.6696549 230.71519958 61.67453369 226.09834337 61.67932862 C215.19982908 61.69043719 204.30134925 61.69085484 193.40283203 61.68481445 C182.17000306 61.67878418 170.93729964 61.69105852 159.70449209 61.71238452 C150.05762227 61.73002435 140.41079231 61.73599778 130.76390696 61.73274678 C125.00396218 61.73093623 119.24410679 61.73354659 113.48417664 61.74746132 C108.06035008 61.76007227 102.63671814 61.75806458 97.21289444 61.74505043 C95.22761595 61.74269152 93.24232363 61.74539461 91.257061 61.75367355 C72.02539465 61.82805482 57.89376978 58.86775205 43.64990234 45.15820312 C41.33828347 42.82039027 39.18512291 40.45261519 37.07958984 37.93164062 C33.57286073 33.83483691 30.42004234 30.80193777 24.79052734 30.11132812 C18.9021134 30.28857135 14.24219212 32.46838692 9.01708984 34.93164062 C2.26709496 38.07984394 -3.57357888 39.96358927 -11.10791016 38.36914062 C-16.80812386 36.10428109 -20.58218322 32.2837903 -24.10791016 27.36914062 C-26.07681081 21.46243866 -26.13611909 14.75938846 -23.48291016 9.05664062 C-22.73259552 7.80180408 -21.94053135 6.57094292 -21.10791016 5.36914062 C-20.71861328 4.76714844 -20.32931641 4.16515625 -19.92822266 3.54492188 C-14.98208066 -2.73287374 -7.16774334 -1.45494492 0 0 Z " fill="#E2E2E2" transform="translate(127.10791015625,80.630859375)"/>
<path d="M0 0 C7.48729143 6.79156966 12.52493699 16.6826321 14.953125 26.4140625 C15.13617187 27.13464844 15.31921875 27.85523438 15.5078125 28.59765625 C18.20769126 45.67320527 15.05058234 61.90101101 5.0546875 76.11328125 C-2.77174452 85.61264948 -14.71986733 92.9114805 -27.046875 94.4140625 C-43.77990865 95.65498682 -58.46749908 94.18248694 -72.046875 83.4140625 C-84.4108643 72.14388584 -88.51455901 58.99208472 -90.328125 42.921875 C-90.9717681 28.70808983 -85.88157243 14.75070207 -76.734375 4.0390625 C-56.17920911 -17.40980626 -22.94835833 -17.78059825 0 0 Z M-55.046875 18.4140625 C-61.36608583 26.28511493 -63.41780055 34.47011936 -62.921875 44.4140625 C-61.79647699 54.16751194 -59.00798841 60.6174517 -51.265625 66.8515625 C-45.35524051 71.0138051 -39.06872707 71.1496851 -32.046875 70.4140625 C-23.0451096 68.43871192 -17.77554221 63.20165705 -12.88671875 55.61328125 C-9.44438272 48.39238102 -9.98743261 38.02892174 -11.73828125 30.40234375 C-14.38538397 23.16988317 -18.34639711 17.46002733 -25.359375 14.0390625 C-35.82456782 9.96536328 -46.41142424 10.79559664 -55.046875 18.4140625 Z " fill="#E7E7E7" transform="translate(1129.046875,160.5859375)"/>
<path d="M0 0 C10.43006103 7.5390334 16.7980594 18.65867916 20.13671875 31.01171875 C21.94390054 43.37216026 21.58897709 56.32550621 16.55078125 67.84375 C16.20015625 68.64683594 15.84953125 69.44992188 15.48828125 70.27734375 C8.93289898 83.41087003 -1.80842959 90.86545739 -15.125 96.08203125 C-27.74908082 100.21933505 -44.48524875 99.37565405 -56.44921875 93.84375 C-69.48449699 87.17935609 -77.09097483 77.28280503 -82.44921875 63.84375 C-87.14224879 48.14486065 -85.53290076 30.61951314 -78.26171875 16.09375 C-71.52283236 4.32877751 -61.63881314 -3.28432605 -48.56054688 -7.06347656 C-31.65606869 -11.43865848 -14.79348357 -9.44861197 0 0 Z M-50.65625 22.76953125 C-57.33020741 30.49038393 -58.9458264 38.96965466 -58.2265625 48.92578125 C-57.01101619 58.30791057 -53.64683447 64.78771884 -46.18359375 70.65625 C-40.30276659 74.68276229 -33.33083473 74.66815545 -26.44921875 73.84375 C-18.23137819 71.33760004 -12.8719075 66.25893256 -8.35546875 59.11328125 C-4.722377 51.4938805 -5.27875661 39.81861479 -7.51171875 31.84375 C-10.30064817 25.02781503 -15.44607232 19.46564033 -22.21875 16.53125 C-33.06460699 13.18821877 -42.4135767 14.92171655 -50.65625 22.76953125 Z " fill="#E7E7E7" transform="translate(964.44921875,157.15625)"/>
<path d="M0 0 C9.9 0 19.8 0 30 0 C31.39734375 3.85429687 32.7946875 7.70859375 34.234375 11.6796875 C35.35890891 14.77859981 36.48377223 17.87739211 37.6088562 20.97610474 C38.79119436 24.23278576 39.97296935 27.48966846 41.15332031 30.74707031 C42.51185002 34.49610548 43.8730557 38.24416435 45.234375 41.9921875 C45.85962067 43.71935501 45.85962067 43.71935501 46.49749756 45.48141479 C48.88142008 52.03765174 51.35963135 58.54258904 54 65 C56.38260328 62.61739672 57.02862545 60.68060961 58.21484375 57.52807617 C58.64869385 56.38316208 59.08254395 55.23824799 59.52954102 54.05863953 C59.99895965 52.80345295 60.46827681 51.54822841 60.9375 50.29296875 C61.42260814 49.00724697 61.90821094 47.72171172 62.39428711 46.43635559 C63.67399851 43.048524 64.94725959 39.658304 66.21911621 36.26751709 C67.5096446 32.82997472 68.80569032 29.39451507 70.1015625 25.95898438 C71.55981559 22.09278818 73.01759122 18.22642381 74.47045898 14.35820007 C74.90430908 13.2038295 75.33815918 12.04945892 75.78515625 10.86010742 C76.16551025 9.84687912 76.54586426 8.83365082 76.93774414 7.78971863 C77.93056943 5.18234002 78.96381833 2.59045417 80 0 C89.24 0 98.48 0 108 0 C107.30623717 3.46881414 106.73598513 5.95968502 105.42797852 9.10791016 C105.10503815 9.89141342 104.78209778 10.67491669 104.44937134 11.48216248 C104.09611786 12.32593948 103.74286438 13.16971649 103.37890625 14.0390625 C103.00776703 14.93557022 102.63662781 15.83207794 102.25424194 16.75575256 C101.02813284 19.71404659 99.79541008 22.66953462 98.5625 25.625 C97.69897171 27.70404657 96.83577657 29.78323153 95.97290039 31.86254883 C93.32231446 38.2446448 90.66228561 44.62277721 88 51 C87.60115601 51.95577942 87.20231201 52.91155884 86.79138184 53.89630127 C82.34091021 64.56020284 77.87828315 75.21898202 73.4079895 85.87458801 C69.39099451 95.44986565 65.38144655 105.02825735 61.37234497 114.60684204 C60.22295194 117.35280342 59.07330518 120.09865843 57.92358398 122.84448242 C57.21337531 124.54085136 56.50317005 126.23722173 55.79296875 127.93359375 C55.32688202 129.04658844 55.32688202 129.04658844 54.85137939 130.18206787 C52.22688895 136.45167422 49.61415038 142.72603909 47 149 C37.76 149 28.52 149 19 149 C19.72792605 145.36036974 20.34569253 142.87390909 21.78173828 139.59619141 C22.14526398 138.75827057 22.50878967 137.92034973 22.8833313 137.05703735 C23.2750351 136.16423065 23.66673889 135.27142395 24.0703125 134.3515625 C24.89264403 132.4404125 25.71423595 130.52894411 26.53515625 128.6171875 C27.82915506 125.61636837 29.12804907 122.61804364 30.43994141 119.625 C31.70703473 116.72769749 32.95265263 113.82191234 34.1953125 110.9140625 C34.59106476 110.02530426 34.98681702 109.13654602 35.39456177 108.22085571 C35.75178314 107.37663055 36.10900452 106.5324054 36.47705078 105.66259766 C36.79602325 104.92933258 37.11499573 104.1960675 37.44363403 103.44058228 C38.93701848 96.88962872 35.93974905 90.74445119 33.48999023 84.79174805 C32.94844803 83.44904091 32.94844803 83.44904091 32.39596558 82.07920837 C31.20737354 79.13707303 30.00792956 76.19948881 28.80859375 73.26171875 C27.97969133 71.21416853 27.15158273 69.1662968 26.32423401 67.11811829 C24.14933182 61.73876634 21.96566945 56.36301817 19.77954102 50.98822021 C16.27479254 42.3683688 12.78158498 33.74384605 9.29179573 25.11792946 C8.06979259 22.10185901 6.84296472 19.08778424 5.61558533 16.07389832 C4.87044975 14.23641766 4.12545209 12.39888107 3.38061523 10.5612793 C2.86400581 9.29815918 2.86400581 9.29815918 2.33695984 8.00952148 C0 2.22715981 0 2.22715981 0 0 Z " fill="#E6E6E6" transform="translate(1266,150)"/>
<path d="M0 0 C1.7583594 0.00552184 3.51672166 0.01018848 5.27508545 0.0140686 C10.02887951 0.02736725 14.78251634 0.05367565 19.53623414 0.08320785 C23.50784713 0.10678573 27.47947785 0.12420074 31.45112151 0.14170629 C40.81627585 0.18317775 50.18132753 0.23545338 59.54638672 0.29443359 C69.20934703 0.35509541 78.87226495 0.39726724 88.53535539 0.43045825 C96.83793586 0.45963584 105.14040583 0.50030573 113.44288749 0.55022222 C118.39932841 0.57989945 123.35569272 0.60516648 128.31220436 0.61934471 C132.96710667 0.63315266 137.62170368 0.66128656 142.27645874 0.70055008 C143.98568086 0.7125574 145.69494739 0.71946877 147.40421104 0.72095299 C149.7345206 0.72377924 152.06396723 0.74488491 154.39411926 0.77067566 C155.69875028 0.77788226 157.00338129 0.78508886 158.34754658 0.79251385 C161.80161491 1.20577415 163.26630882 1.63658976 165.61010742 4.18286133 C166.25855241 9.83359627 165.66002198 13.25607628 162.61010742 18.18286133 C160.61010742 20.18286133 160.61010742 20.18286133 158.30932617 20.41333008 C153.18857717 20.3402714 148.08699163 20.22760497 142.9753418 19.9128418 C131.62503376 19.22585259 120.53721506 19.29768043 109.19274902 19.96191406 C92.01553628 20.94442066 74.86945156 21.27220221 57.66870117 21.24926758 C56.75453241 21.24813398 55.84036366 21.24700039 54.89849281 21.24583244 C45.62936566 21.23117493 36.36053089 21.19259729 27.09162998 21.12647152 C23.573833 21.10293308 20.05602202 21.08691549 16.5381794 21.07192802 C14.10717918 21.05828339 11.67648771 21.03304777 9.24559021 21.00733948 C-6.10870875 20.90309648 -19.16591758 21.99087762 -30.71606445 33.12963867 C-34.33366199 36.75840163 -37.70642616 40.53482619 -40.95239258 44.49536133 C-48.02038714 52.55651672 -54.97393655 54.51270602 -65.26342773 55.2902832 C-71.78821881 55.91544787 -75.13241632 58.1878695 -79.38989258 63.18286133 C-83.71973455 67.09027969 -87.64648277 69.18286133 -93.62817383 69.18286133 C-101.9968672 68.50773985 -106.57950465 65.40556514 -111.97192383 59.12036133 C-115.56114703 54.21607838 -114.9048896 47.97289924 -114.38989258 42.18286133 C-112.67878791 35.96722209 -108.67396966 31.72601278 -103.38989258 28.18286133 C-96.04118939 25.7332936 -88.63540389 26.90707919 -81.38989258 29.18286133 C-73.96566978 31.44524825 -67.20233113 33.01045896 -59.72583008 30.17114258 C-52.50876196 26.1155335 -47.36942731 20.02970173 -41.88037109 13.97143555 C-29.68083269 0.66540197 -17.14142251 -0.12613896 0 0 Z " fill="#77B728" transform="translate(236.389892578125,284.817138671875)"/>
<path d="M0 0 C7.08721938 5.98476303 10.63803664 11.18593692 11.4375 20.5625 C12.62819782 28.77645452 16.5139464 33.79427951 22.80078125 39.03125 C31.4802644 45.01470131 41.41730309 44.64996829 51.57470703 44.55444336 C52.94396637 44.54895787 54.31322975 44.54441158 55.68249512 44.54072571 C58.61423692 44.53106782 61.54585728 44.51529108 64.47754288 44.49476433 C69.1176503 44.46276691 73.75772373 44.44741293 78.3979187 44.43470764 C89.91793896 44.40073312 101.43786327 44.34795867 112.95776367 44.2855835 C121.92359985 44.23707872 130.88935119 44.19501975 139.85529983 44.17407519 C144.46398001 44.16258343 149.0723073 44.13723014 153.68085885 44.10132778 C156.55030488 44.082083 159.41968003 44.07544916 162.28918457 44.07226372 C164.24516437 44.06635519 166.20108083 44.0454095 168.1569519 44.0239563 C177.92515792 44.03421579 183.67156032 45.73709613 190.9453125 52.40234375 C194.48558526 56.14259007 197.8125 60.09667488 197.8125 65.375 C181.64150581 65.50686364 165.47050083 65.63730532 149.29948235 65.76615143 C141.78737737 65.82603728 134.27527634 65.88635161 126.76318359 65.94775391 C120.19925389 66.00140494 113.63531772 66.05417143 107.07137311 66.10596704 C103.61073671 66.13330316 100.15010451 66.16101975 96.68947983 66.18980408 C89.01495561 66.25319601 81.34046056 66.30789482 73.66579437 66.35092163 C71.01173145 66.36750627 68.357832 66.38682379 65.70383453 66.41030884 C61.61915244 66.44629258 57.53449023 66.46855462 53.44970703 66.49023438 C52.21451765 66.50302681 50.97932827 66.51581924 49.70670891 66.52899933 C31.47962538 66.59297299 16.54217458 61.42181407 3.12109375 48.78125 C1.27176131 46.85368861 -0.12186173 45.0930393 -1.5625 42.875 C-5.30751622 39.30831788 -8.93354386 39.48970092 -13.953125 38.921875 C-19.80538558 37.93236234 -23.5489452 35.09979453 -27.5625 30.875 C-31.08386277 25.45751882 -32.02307197 20.77033932 -31.1875 14.375 C-29.24511862 7.72418782 -24.81771565 3.22054352 -19.1875 -0.625 C-12.64862694 -3.47832642 -6.31277438 -3.21827714 0 0 Z " fill="#77B728" transform="translate(200.1875,20.625)"/>
<path d="M0 0 C8.58 0 17.16 0 26 0 C26.8796765 16.52817788 27.13362529 32.97456825 27.09765625 49.5234375 C27.09578563 52.09274264 27.09436478 54.66204814 27.09336853 57.23135376 C27.08997706 63.23717968 27.08214549 69.24298297 27.07201904 75.24879992 C27.06072089 82.10286507 27.05531345 88.95693126 27.05032361 95.81100345 C27.03995761 109.87401457 27.0216682 123.93700198 27 138 C18.09 138 9.18 138 0 138 C0 92.46 0 46.92 0 0 Z " fill="#E8E8E8" transform="translate(999,116)"/>
<path d="M0 0 C8.91 0 17.82 0 27 0 C27 42.9 27 85.8 27 130 C18.09 130 9.18 130 0 130 C0 87.1 0 44.2 0 0 Z " fill="#77B727" transform="translate(610,124)"/>
<path d="M0 0 C8.58 0 17.16 0 26 0 C26 34.32 26 68.64 26 104 C17.42 104 8.84 104 0 104 C0 69.68 0 35.36 0 0 Z " fill="#E6E6E6" transform="translate(1545,150)"/>
<path d="M0 0 C4.87608803 4.63823007 6.78731382 8.28416949 7.125 14.9375 C6.935817 19.52834081 6.10512783 22.55733622 3.109375 26.06640625 C-0.60578663 29.35939043 -4.63885745 30.58057526 -9.5 30.8125 C-15.12320168 30.27695698 -18.56591385 28.66893609 -22.25 24.4375 C-25.52920101 19.94031004 -26.11784132 15.88994976 -25.4375 10.4375 C-24.04005368 5.78215173 -22.14947519 3.01870423 -18.375 -0.0625 C-12.48274193 -2.90703838 -5.85433613 -2.66106188 0 0 Z " fill="#DBDBDB" transform="translate(1402.4375,224.5625)"/>
<path d="M0 0 C6.18926983 4.2199567 6.18926983 4.2199567 7.75 7.875 C8.60827793 14.77361128 9.06497141 21.11492024 4.75 26.875 C-0.29161699 30.76124643 -4.32359596 31.50900454 -10.66015625 31.265625 C-15.34119124 30.55958654 -18.021389 28.27307459 -21.0625 24.8125 C-23.91748055 20.15437384 -23.93846211 15.16364079 -23.25 9.875 C-21.54417253 5.49278806 -19.29242609 2.63312807 -15.5 -0.125 C-10.0503621 -1.80181166 -5.40173378 -1.86983092 0 0 Z " fill="#DCDCDC" transform="translate(1565.25,112.125)"/>
<path d="M0 0 C36.96 0 73.92 0 112 0 C108.65062787 1.67468607 107.39044263 2.23387725 103.9375 2.5 C99.9542797 2.70875489 99.9542797 2.70875489 97 5 C93.3125 4.625 93.3125 4.625 90 4 C90 3.34 90 2.68 90 2 C86.64566891 2.94933899 83.30753495 3.89748835 80 5 C78.00038436 5.03920815 75.99950636 5.04443347 74 5 C74 4.01 74 3.02 74 2 C66.75022565 2.10753442 59.50054963 2.22017452 52.25095654 2.33933926 C48.88470387 2.39451122 45.51844243 2.44792197 42.15209961 2.49731445 C38.28230386 2.55496637 34.41264856 2.61867568 30.54296875 2.68359375 C29.33352097 2.70030624 28.12407318 2.71701874 26.87797546 2.73423767 C25.19657219 2.7641555 25.19657219 2.7641555 23.48120117 2.79467773 C22.49302902 2.81022202 21.50485687 2.8257663 20.48674011 2.84178162 C17.86800044 2.90213783 17.86800044 2.90213783 15 4 C13.52313889 4.09247381 12.04224499 4.12999071 10.5625 4.125 C9.41974609 4.12886719 9.41974609 4.12886719 8.25390625 4.1328125 C6.04684141 4.00276015 4.12030724 3.60856199 2 3 C2 2.34 2 1.68 2 1 C1.34 0.67 0.68 0.34 0 0 Z " fill="#7EAF3E" transform="translate(266,65)"/>
<path d="M0 0 C0 1.32 0 2.64 0 4 C0.66 4 1.32 4 2 4 C2 2.68 2 1.36 2 0 C6.29 0 10.58 0 15 0 C15.33 1.32 15.66 2.64 16 4 C16.61875 3.67 17.2375 3.34 17.875 3 C22.26211512 1.59612316 26.43151427 1.84032477 31 2 C31.495 3.98 31.495 3.98 32 6 C18.14 6 4.28 6 -10 6 C-8.09258661 0.27775983 -5.91019817 -0.39401321 0 0 Z " fill="#81AA4D" transform="translate(352,298)"/>
<path d="M0 0 C0.33 0.99 0.66 1.98 1 3 C-46.19 3.33 -93.38 3.66 -142 4 C-139 1 -139 1 -135.8125 0.8125 C-134.4203125 0.9053125 -134.4203125 0.9053125 -133 1 C-133 1.66 -133 2.32 -133 3 C-132.28762586 2.83748025 -131.57525171 2.6749605 -130.84129047 2.50751591 C-128.00193493 2.00034562 -125.4208573 1.87691771 -122.53935242 1.87974548 C-121.45546738 1.87837082 -120.37158234 1.87699615 -119.25485229 1.87557983 C-118.07593414 1.87917511 -116.89701599 1.88277039 -115.68237305 1.88647461 C-114.43318588 1.88632858 -113.18399872 1.88618256 -111.8969574 1.8860321 C-108.47998328 1.88660865 -105.06306986 1.89161776 -101.64610648 1.89860606 C-98.07200026 1.90486495 -94.4978932 1.90544541 -90.92378235 1.90663147 C-84.15949133 1.90973731 -77.39521652 1.91794063 -70.63093263 1.92798096 C-62.92842618 1.9391653 -55.22591894 1.9446584 -47.52340639 1.94967639 C-31.68226155 1.96012386 -15.84113287 1.97770884 0 2 C0 1.34 0 0.68 0 0 Z " fill="#7CAF40" transform="translate(397,83)"/>
<path d="M0 0 C0.92244507 0.10610596 0.92244507 0.10610596 1.86352539 0.21435547 C9.38994315 0.9970534 16.85134546 1.15420029 24.4152832 1.13037109 C26.43122913 1.12501666 28.44695145 1.13034773 30.46289062 1.13671875 C38.36030671 1.12894953 46.14342474 0.81048914 54 0 C53.34 1.65 52.68 3.3 52 5 C50.68 5 49.36 5 48 5 C48 4.34 48 3.68 48 3 C39.42 3 30.84 3 22 3 C22 3.66 22 4.32 22 5 C20.02 5 18.04 5 16 5 C16 4.34 16 3.68 16 3 C14.77023438 3.01740234 14.77023438 3.01740234 13.515625 3.03515625 C11.89914063 3.04869141 11.89914063 3.04869141 10.25 3.0625 C8.64898437 3.07990234 8.64898437 3.07990234 7.015625 3.09765625 C4.46631499 3.01510087 2.42066409 2.74617558 0 2 C0 1.34 0 0.68 0 0 Z " fill="#7CAF40" transform="translate(38,208)"/>
<path d="M0 0 C0 1.32 0 2.64 0 4 C0.66 4 1.32 4 2 4 C2 2.68 2 1.36 2 0 C6.29 0 10.58 0 15 0 C15.33 1.32 15.66 2.64 16 4 C14.783125 3.95875 13.56625 3.9175 12.3125 3.875 C7.07721957 3.85838006 2.06743117 4.67657098 -3.08203125 5.5625 C-6 6 -6 6 -10 6 C-8.09258661 0.27775983 -5.91019817 -0.39401321 0 0 Z " fill="#80AC46" transform="translate(352,298)"/>
<path d="M0 0 C3.60409919 -0.05800828 7.20807851 -0.09359869 10.8125 -0.125 C12.34874023 -0.15013672 12.34874023 -0.15013672 13.91601562 -0.17578125 C14.89892578 -0.18222656 15.88183594 -0.18867188 16.89453125 -0.1953125 C17.80050049 -0.20578613 18.70646973 -0.21625977 19.63989258 -0.22705078 C22 0 22 0 25 2 C25 2.66 25 3.32 25 4 C16.75 3.67 8.5 3.34 0 3 C0 2.01 0 1.02 0 0 Z " fill="#7CB137" transform="translate(48,228)"/>
<path d="M0 0 C0.33 0 0.66 0 1 0 C1 6.27 1 12.54 1 19 C-2.14078469 15.85921531 -1.97672315 13.48881377 -2.1875 9.0625 C-2.15563479 5.65292231 -1.542413 3.084826 0 0 Z " fill="#81AC42" transform="translate(42,142)"/>
<path d="M0 0 C0.33 0.99 0.66 1.98 1 3 C-1.20826378 3.02722517 -3.41662638 3.04649729 -5.625 3.0625 C-6.85476562 3.07410156 -8.08453125 3.08570312 -9.3515625 3.09765625 C-12.67723791 3.00863924 -15.74047588 2.63686087 -19 2 C-19 1.67 -19 1.34 -19 1 C-12.65333314 0.41639845 -6.37625222 -0.14491482 0 0 Z " fill="#7EB039" transform="translate(253,84)"/>
<path d="M0 0 C0.66 0.33 1.32 0.66 2 1 C2.29047722 6.61589298 2.10842092 10.09825932 -1 15 C-1.99 15.495 -1.99 15.495 -3 16 C-3 15.34 -3 14.68 -3 14 C-3.99 14 -4.98 14 -6 14 C-5.67 13.01 -5.34 12.02 -5 11 C-3.35 11 -1.7 11 0 11 C0 7.37 0 3.74 0 0 Z " fill="#76AF39" transform="translate(400,288)"/>
<path d="M0 0 C4.29 0 8.58 0 13 0 C13.33 1.32 13.66 2.64 14 4 C13.67 3.34 13.34 2.68 13 2 C6.565 2.495 6.565 2.495 0 3 C0 2.01 0 1.02 0 0 Z " fill="#7BB236" transform="translate(354,298)"/>
<path d="M0 0 C4.29 0 8.58 0 13 0 C13 0.99 13 1.98 13 3 C8.71 3 4.42 3 0 3 C0 2.01 0 1.02 0 0 Z " fill="#7BB235" transform="translate(370,298)"/>
<path d="M0 0 C0.66 0 1.32 0 2 0 C1.71640113 1.4391134 1.42278601 2.87625518 1.125 4.3125 C0.96257813 5.11300781 0.80015625 5.91351563 0.6328125 6.73828125 C0 9 0 9 -2 12 C-2 10.68 -2 9.36 -2 8 C-3.32 8 -4.64 8 -6 8 C-5.67 7.01 -5.34 6.02 -5 5 C-3.35 5 -1.7 5 0 5 C0 3.35 0 1.7 0 0 Z " fill="#79B23B" transform="translate(512,230)"/>
<path d="M0 0 C4.75 0.875 4.75 0.875 7 2 C7 2.66 7 3.32 7 4 C3.625 4.125 3.625 4.125 0 4 C-0.66 3.34 -1.32 2.68 -2 2 C-1.34 2 -0.68 2 0 2 C0 1.34 0 0.68 0 0 Z " fill="#7FAD43" transform="translate(66,228)"/>
<path d="M0 0 C0.9075 0.103125 1.815 0.20625 2.75 0.3125 C2.75 1.3025 2.75 2.2925 2.75 3.3125 C-0.55 3.9725 -3.85 4.6325 -7.25 5.3125 C-4.05 0.38942308 -4.05 0.38942308 0 0 Z " fill="#7CB136" transform="translate(349.25,297.6875)"/>
<path d="M0 0 C0 0.99 0 1.98 0 3 C-0.66 3.66 -1.32 4.32 -2 5 C-2.64767793 7.57061311 -2.64767793 7.57061311 -3 10 C-4.32 9.67 -5.64 9.34 -7 9 C-2.85714286 2.57142857 -2.85714286 2.57142857 0 0 Z " fill="#80AF3F" transform="translate(130,315)"/>
<path d="M0 0 C4.29 0 8.58 0 13 0 C12.67 0.66 12.34 1.32 12 2 C7.31090292 3.08209933 4.30902834 3.21980248 0 1 C0 0.67 0 0.34 0 0 Z " fill="#81AB49" transform="translate(352,65)"/>
<path d="M0 0 C1.19882812 0.15275391 1.19882812 0.15275391 2.421875 0.30859375 C3.02515625 0.39238281 3.6284375 0.47617188 4.25 0.5625 C4.25 0.8925 4.25 1.2225 4.25 1.5625 C3.321875 1.541875 2.39375 1.52125 1.4375 1.5 C-1.77286011 1.40480396 -1.77286011 1.40480396 -4.75 2.5625 C-6.9375 1.625 -6.9375 1.625 -8.75 0.5625 C-5.62819599 -0.40411363 -3.22916205 -0.42738909 0 0 Z " fill="#7BB036" transform="translate(22.75,201.4375)"/>
<path d="M0 0 C5.875 3.625 5.875 3.625 7 7 C6.34 7 5.68 7 5 7 C5 6.34 5 5.68 5 5 C3.68 5 2.36 5 1 5 C0.67 3.35 0.34 1.7 0 0 Z " fill="#7AB331" transform="translate(105,143)"/>
<path d="M0 0 C0.66 0.33 1.32 0.66 2 1 C1.21654285 2.17219543 0.42297164 3.33763668 -0.375 4.5 C-0.81585938 5.1496875 -1.25671875 5.799375 -1.7109375 6.46875 C-2.13632812 6.9740625 -2.56171875 7.479375 -3 8 C-3.66 8 -4.32 8 -5 8 C-4.45773019 4.20411134 -2.79872437 2.52788007 0 0 Z " fill="#7DAF3A" transform="translate(49,134)"/>
<path d="M0 0 C1.9451 2.91765 2.45276317 4.62537285 3 8 C1.68 8 0.36 8 -1 8 C-0.67 5.36 -0.34 2.72 0 0 Z " fill="#7CB139" transform="translate(581,204)"/>
<path d="M0 0 C2 1.0625 2 1.0625 4 3 C4.25 6.6875 4.25 6.6875 4 10 C1.81024227 6.71536341 1.00193437 3.79303725 0 0 Z " fill="#82AE3B" transform="translate(543,176)"/>
<path d="M0 0 C2 3 2 3 2 7 C0.68 7.33 -0.64 7.66 -2 8 C-1.34 5.36 -0.68 2.72 0 0 Z " fill="#7EAE43" transform="translate(482,240)"/>
<path d="M0 0 C0.33 0 0.66 0 1 0 C1 2.64 1 5.28 1 8 C0.01 8.33 -0.98 8.66 -2 9 C-1.34 6.03 -0.68 3.06 0 0 Z " fill="#7CAF43" transform="translate(490,217)"/>
<path d="M0 0 C1.98 0.99 1.98 0.99 4 2 C3.34 3.65 2.68 5.3 2 7 C0 5 0 5 -0.125 2.375 C-0.08375 1.59125 -0.0425 0.8075 0 0 Z " fill="#7AB13C" transform="translate(403,175)"/>
</svg>
